<svg width="1113" height="956" viewBox="0 0 1113 956" fill="none" xmlns="http://www.w3.org/2000/svg">
<g clip-path="url(#clip0)">
<path opacity="0.4" fill-rule="evenodd" clip-rule="evenodd" d="M832.966 -296.176C1027.07 -308.66 1237.74 -319.18 1375.71 -181.934C1529.98 -28.4673 1595.64 202.29 1547.46 414.597C1499.22 627.133 1335.05 793.204 1134.92 879.019C945.467 960.253 740.501 917.584 548.339 843.005C327.338 757.232 48.1109 673.844 5.06033 440.511C-37.4085 210.331 196.392 38.1864 371.157 -117.323C500.948 -232.813 659.669 -285.03 832.966 -296.176Z" fill="#FFC38B"/>
<path d="M160 702.085C273.283 774.02 416.53 822.041 542.124 870.785C746.826 950.231 965.167 995.684 1166.98 909.149C1380.18 817.735 1555.06 640.827 1606.44 414.423C1657.77 188.261 1587.82 -57.5532 1423.49 -221.034C1276.52 -367.235 1052.09 -356.03 845.324 -342.731C660.719 -330.857 491.639 -275.233 353.378 -152.207C279.379 -86.3607 195.443 -17.7151 124.003 56.5" stroke="white" stroke-width="2"/>
</g>
<defs>
<clipPath id="clip0">
<rect width="1113" height="956" fill="white"/>
</clipPath>
</defs>
</svg>
