<svg width="931" height="1035" viewBox="0 0 931 1035" fill="none" xmlns="http://www.w3.org/2000/svg">
<g clip-path="url(#clip0)">
<path opacity="0.24" fill-rule="evenodd" clip-rule="evenodd" d="M373.509 1000.35C281.1 987.288 215.993 913.632 135.364 866.649C42.264 812.398 -74.5023 793.347 -134.867 704.11C-204.864 600.633 -241.506 469.825 -215.752 347.593C-188.672 219.074 -120.471 68.1072 6.36226 33.8333C137.764 -1.67509 238.707 169.486 373.509 188.359C476.898 202.834 574.11 93.2192 672.838 127.143C779.561 163.814 874.12 258.366 898.076 368.606C921.597 476.841 833.418 572.196 791.865 674.871C754.062 768.278 745.709 879.76 666.163 941.646C585.674 1004.26 474.497 1014.61 373.509 1000.35Z" fill="#FFC38B"/>
<path d="M930.846 359.767C905.486 242.982 805.384 142.818 692.406 103.97C587.891 68.0316 484.981 184.153 375.532 168.819C232.828 148.826 125.969 -32.4961 -13.1352 5.12024C-147.403 41.4289 -219.601 201.357 -248.268 337.506C-275.532 466.995 -236.742 605.568 -162.642 715.188C-98.7396 809.722 24.8709 829.905 123.428 887.376C208.783 937.149 277.706 1015.18 375.532 1029.01C482.439 1044.13 600.133 1033.16 685.339 966.826" stroke="white" stroke-width="2"/>
</g>
<defs>
<clipPath id="clip0">
<rect width="931" height="1035" fill="white"/>
</clipPath>
</defs>
</svg>
