<svg width="658" height="1106" viewBox="0 0 658 1106" fill="none" xmlns="http://www.w3.org/2000/svg">
<g clip-path="url(#clip0)">
<path opacity="0.4" fill-rule="evenodd" clip-rule="evenodd" d="M193.913 42.7029C27.2999 29.1412 -158.718 1.69771 -276.359 120.5C-404.437 249.842 -446.304 456.335 -385.647 627.982C-330.559 783.871 -148.635 826.178 -0.832214 900.186C151.934 976.681 308.752 1128.06 461.928 1052.39C614.69 976.921 598.202 762.046 620.762 593.115C639.587 452.158 664.242 302.331 577.103 189.968C488.862 76.1835 337.399 54.3821 193.913 42.7029Z" fill="#FFC38B"/>
<path d="M658 460.661C654.279 506.108 647.698 552.046 641.681 597.129C617.769 776.264 635.244 1004.12 473.333 1084.14C310.982 1164.38 144.771 1003.86 -17.145 922.748C-173.801 844.269 -366.621 799.407 -425.009 634.102C-489.299 452.087 -444.924 233.121 -309.175 95.966C-184.488 -30.0118 12.6722 -0.910682 189.264 13.4701C264.638 19.6082 342.088 28.3828 412.428 50.3617" stroke="white" stroke-width="2"/>
</g>
<defs>
<clipPath id="clip0">
<rect width="658" height="1106" fill="white"/>
</clipPath>
</defs>
</svg>
