<svg width="460" height="86" viewBox="0 0 460 86" fill="none" xmlns="http://www.w3.org/2000/svg">
<path d="M54.9902 8.76244C57.2474 6.51554 58.5776 6.06769 61.5119 4.84677C64.4462 3.62585 67.596 3 70.7765 3C73.9571 3 77.1068 3.62585 80.0411 4.83651C82.9857 6.05743 85.6533 7.84265 87.9002 10.0896C90.1471 12.3365 91.9323 15.0143 93.1532 17.9383C94.3741 20.8726 95 24.0224 95 27.203C95 30.3835 94.3741 33.5333 93.1532 36.4676C91.9323 39.4122 90.1471 42.0797 87.9002 44.3266L48.9949 83.2422L10.0896 44.3369C5.5547 39.7918 3 33.6359 3 27.2132C3 20.7906 5.5547 14.6347 10.0896 10.0896C14.6347 5.5547 20.7906 3 27.2132 3C33.6359 3 39.7918 5.5547 44.3164 10.0998L63.8819 27.8391V53.4887H53.6987L53.6372 38.1502H43.7062V53.4887H33.5025V27.8391L43.5777 18.9694" stroke="url(#paint0_linear)" stroke-width="5.34948" stroke-linecap="round" stroke-linejoin="round"/>
<path d="M132.239 59.0731C131.247 59.0731 130.479 58.5451 129.935 57.4891L119.759 36.0331C119.503 35.4891 119.471 34.9611 119.663 34.4491C119.887 33.9051 120.303 33.4891 120.911 33.2011C121.455 32.9131 121.999 32.8651 122.543 33.0571C123.119 33.2491 123.551 33.6171 123.839 34.1611L132.191 52.1611L140.447 34.1611C140.735 33.6171 141.167 33.2491 141.743 33.0571C142.351 32.8651 142.959 32.9131 143.567 33.2011C144.143 33.4571 144.527 33.8571 144.719 34.4011C144.911 34.9451 144.879 35.4891 144.623 36.0331L134.447 57.4891C133.967 58.5451 133.231 59.0731 132.239 59.0731ZM154.36 70.6411C154.04 70.6411 153.656 70.5451 153.208 70.3531C151.8 69.7131 151.416 68.7051 152.056 67.3291L156.856 56.5291L146.056 36.0331C145.736 35.4251 145.688 34.8491 145.912 34.3051C146.168 33.7291 146.6 33.3131 147.208 33.0571C147.816 32.8011 148.392 32.7851 148.936 33.0091C149.48 33.2011 149.896 33.6011 150.184 34.2091L158.968 51.6811L166.696 34.2571C167.336 32.9131 168.344 32.5291 169.72 33.1051C171.16 33.7131 171.56 34.7211 170.92 36.1291L156.232 69.1531C155.848 70.1451 155.224 70.6411 154.36 70.6411ZM185.537 59.3131C183.137 59.3131 181.009 58.7531 179.153 57.6331C177.329 56.4811 175.889 54.9131 174.833 52.9291C173.777 50.9131 173.249 48.6091 173.249 46.0171C173.249 43.3931 173.809 41.0891 174.929 39.1051C176.081 37.0891 177.649 35.5211 179.633 34.4011C181.617 33.2491 183.905 32.6731 186.497 32.6731C189.057 32.6731 191.329 33.2491 193.313 34.4011C195.297 35.5211 196.849 37.0891 197.969 39.1051C199.121 41.0891 199.697 43.3931 199.697 46.0171V56.3851C199.697 58.9131 199.137 61.2011 198.017 63.2491C196.897 65.3291 195.329 66.9771 193.313 68.1931C191.329 69.4091 189.025 70.0171 186.401 70.0171C184.129 70.0171 182.001 69.5691 180.017 68.6731C178.033 67.7771 176.353 66.4651 174.977 64.7371C174.561 64.1931 174.401 63.6331 174.497 63.0571C174.625 62.4811 174.945 62.0171 175.457 61.6651C176.033 61.2811 176.625 61.1531 177.233 61.2811C177.873 61.4091 178.385 61.7291 178.769 62.2411C179.633 63.3291 180.721 64.1771 182.033 64.7851C183.345 65.3931 184.833 65.6971 186.497 65.6971C188.033 65.6971 189.441 65.3291 190.721 64.5931C192.033 63.8571 193.073 62.7691 193.841 61.3291C194.609 59.8891 194.993 58.1291 194.993 56.0491V53.6971C194.001 55.4251 192.689 56.8011 191.057 57.8251C189.425 58.8171 187.585 59.3131 185.537 59.3131ZM186.497 54.9931C188.161 54.9931 189.633 54.6091 190.913 53.8411C192.193 53.0731 193.185 52.0171 193.889 50.6731C194.625 49.3291 194.993 47.7771 194.993 46.0171C194.993 44.2571 194.625 42.7051 193.889 41.3611C193.185 39.9851 192.193 38.9131 190.913 38.1451C189.633 37.3771 188.161 36.9931 186.497 36.9931C184.833 36.9931 183.361 37.3771 182.081 38.1451C180.801 38.9131 179.793 39.9851 179.057 41.3611C178.321 42.7051 177.953 44.2571 177.953 46.0171C177.953 47.7771 178.321 49.3291 179.057 50.6731C179.793 52.0171 180.801 53.0731 182.081 53.8411C183.361 54.6091 184.833 54.9931 186.497 54.9931ZM209.384 59.1211C207.784 59.1211 206.984 58.3211 206.984 56.7211V35.2651C206.984 33.6651 207.784 32.8651 209.384 32.8651C210.984 32.8651 211.784 33.6651 211.784 35.2651V36.1771C212.744 35.0571 213.912 34.1771 215.288 33.5371C216.696 32.8971 218.216 32.5771 219.848 32.5771C221.768 32.5771 223.192 32.8971 224.12 33.5371C225.08 34.1451 225.448 34.8811 225.224 35.7451C225.064 36.4171 224.744 36.8651 224.264 37.0891C223.784 37.2811 223.224 37.3131 222.584 37.1851C220.536 36.7691 218.696 36.7371 217.064 37.0891C215.432 37.4411 214.136 38.0971 213.176 39.0571C212.248 40.0171 211.784 41.2331 211.784 42.7051V56.7211C211.784 58.3211 210.984 59.1211 209.384 59.1211ZM241.368 59.3611C239.16 59.3611 237.176 58.8971 235.416 57.9691C233.688 57.0091 232.312 55.6171 231.288 53.7931C230.296 51.9691 229.8 49.7291 229.8 47.0731V35.2651C229.8 34.5611 230.024 33.9851 230.472 33.5371C230.952 33.0571 231.544 32.8171 232.248 32.8171C232.952 32.8171 233.528 33.0571 233.976 33.5371C234.456 33.9851 234.696 34.5611 234.696 35.2651V47.0731C234.696 49.7931 235.416 51.7931 236.856 53.0731C238.328 54.3211 240.152 54.9451 242.328 54.9451C243.704 54.9451 244.92 54.6731 245.976 54.1291C247.064 53.5851 247.928 52.8491 248.568 51.9211C249.208 50.9931 249.528 49.9531 249.528 48.8011V35.2651C249.528 34.5291 249.752 33.9371 250.2 33.4891C250.68 33.0411 251.272 32.8171 251.976 32.8171C252.712 32.8171 253.304 33.0411 253.752 33.4891C254.2 33.9371 254.424 34.5291 254.424 35.2651V56.6731C254.424 57.3771 254.2 57.9691 253.752 58.4491C253.304 58.8971 252.712 59.1211 251.976 59.1211C251.272 59.1211 250.68 58.8971 250.2 58.4491C249.752 57.9691 249.528 57.3771 249.528 56.6731V56.1451C248.536 57.1371 247.336 57.9211 245.928 58.4971C244.52 59.0731 243 59.3611 241.368 59.3611ZM265.495 59.1691C264.791 59.1691 264.199 58.9451 263.719 58.4971C263.271 58.0171 263.047 57.4251 263.047 56.7211V35.3131C263.047 34.5771 263.271 33.9851 263.719 33.5371C264.199 33.0891 264.791 32.8651 265.495 32.8651C266.231 32.8651 266.823 33.0891 267.271 33.5371C267.719 33.9851 267.943 34.5771 267.943 35.3131V35.8411C268.935 34.8491 270.135 34.0651 271.543 33.4891C272.951 32.9131 274.471 32.6251 276.103 32.6251C278.311 32.6251 280.279 33.1051 282.007 34.0651C283.767 34.9931 285.143 36.3691 286.135 38.1931C287.159 40.0171 287.671 42.2571 287.671 44.9131V56.7211C287.671 57.4251 287.431 58.0171 286.951 58.4971C286.503 58.9451 285.927 59.1691 285.223 59.1691C284.519 59.1691 283.927 58.9451 283.447 58.4971C282.999 58.0171 282.775 57.4251 282.775 56.7211V44.9131C282.775 42.1931 282.039 40.2091 280.567 38.9611C279.127 37.6811 277.319 37.0411 275.143 37.0411C273.799 37.0411 272.583 37.3131 271.495 37.8571C270.407 38.4011 269.543 39.1371 268.903 40.0651C268.263 40.9611 267.943 42.0011 267.943 43.1851V56.7211C267.943 57.4251 267.719 58.0171 267.271 58.4971C266.823 58.9451 266.231 59.1691 265.495 59.1691ZM305.317 59.1211C303.717 59.1211 302.277 58.7211 300.997 57.9211C299.717 57.0891 298.709 55.9691 297.973 54.5611C297.237 53.1531 296.869 51.5691 296.869 49.8091V37.9531H294.661C293.989 37.9531 293.445 37.7611 293.029 37.3771C292.613 36.9931 292.405 36.5131 292.405 35.9371C292.405 35.2971 292.613 34.7851 293.029 34.4011C293.445 34.0171 293.989 33.8251 294.661 33.8251H296.869V26.9131C296.869 26.2091 297.093 25.6331 297.541 25.1851C297.989 24.7371 298.565 24.5131 299.269 24.5131C299.973 24.5131 300.549 24.7371 300.997 25.1851C301.445 25.6331 301.669 26.2091 301.669 26.9131V33.8251H305.749C306.421 33.8251 306.965 34.0171 307.381 34.4011C307.797 34.7851 308.005 35.2971 308.005 35.9371C308.005 36.5131 307.797 36.9931 307.381 37.3771C306.965 37.7611 306.421 37.9531 305.749 37.9531H301.669V49.8091C301.669 51.0891 302.021 52.1611 302.725 53.0251C303.429 53.8891 304.293 54.3211 305.317 54.3211H306.949C307.525 54.3211 308.005 54.5451 308.389 54.9931C308.805 55.4411 309.013 56.0171 309.013 56.7211C309.013 57.4251 308.741 58.0011 308.197 58.4491C307.685 58.8971 307.013 59.1211 306.181 59.1211H305.317ZM326.071 59.3611C323.863 59.3611 321.879 58.8971 320.119 57.9691C318.391 57.0091 317.015 55.6171 315.991 53.7931C314.999 51.9691 314.503 49.7291 314.503 47.0731V35.2651C314.503 34.5611 314.727 33.9851 315.175 33.5371C315.655 33.0571 316.247 32.8171 316.951 32.8171C317.655 32.8171 318.231 33.0571 318.679 33.5371C319.159 33.9851 319.399 34.5611 319.399 35.2651V47.0731C319.399 49.7931 320.119 51.7931 321.559 53.0731C323.031 54.3211 324.855 54.9451 327.031 54.9451C328.407 54.9451 329.623 54.6731 330.679 54.1291C331.767 53.5851 332.631 52.8491 333.271 51.9211C333.911 50.9931 334.231 49.9531 334.231 48.8011V35.2651C334.231 34.5291 334.455 33.9371 334.903 33.4891C335.383 33.0411 335.975 32.8171 336.679 32.8171C337.415 32.8171 338.007 33.0411 338.455 33.4891C338.903 33.9371 339.127 34.5291 339.127 35.2651V56.6731C339.127 57.3771 338.903 57.9691 338.455 58.4491C338.007 58.8971 337.415 59.1211 336.679 59.1211C335.975 59.1211 335.383 58.8971 334.903 58.4491C334.455 57.9691 334.231 57.3771 334.231 56.6731V56.1451C333.239 57.1371 332.039 57.9211 330.631 58.4971C329.223 59.0731 327.703 59.3611 326.071 59.3611ZM341.03 70.3531C340.326 70.3531 339.75 70.1131 339.302 69.6331C338.854 69.1851 338.63 68.6091 338.63 67.9051C338.63 67.1691 338.854 66.5771 339.302 66.1291C339.75 65.6811 340.326 65.4571 341.03 65.4571C342.918 65.4571 344.47 64.8491 345.686 63.6331C346.902 62.4171 347.51 60.8811 347.51 59.0251V35.3131C347.51 34.5771 347.734 33.9851 348.182 33.5371C348.662 33.0891 349.254 32.8651 349.958 32.8651C350.694 32.8651 351.286 33.0891 351.734 33.5371C352.182 33.9851 352.406 34.5771 352.406 35.3131V59.0251C352.406 61.2331 351.91 63.1851 350.918 64.8811C349.958 66.5771 348.63 67.9051 346.934 68.8651C345.238 69.8571 343.27 70.3531 341.03 70.3531ZM349.958 28.5931C349.094 28.5931 348.342 28.2891 347.702 27.6811C347.094 27.0411 346.79 26.2891 346.79 25.4251C346.79 24.5611 347.094 23.8251 347.702 23.2171C348.342 22.5771 349.094 22.2571 349.958 22.2571C350.822 22.2571 351.558 22.5771 352.166 23.2171C352.806 23.8251 353.126 24.5611 353.126 25.4251C353.126 26.2891 352.806 27.0411 352.166 27.6811C351.558 28.2891 350.822 28.5931 349.958 28.5931ZM371.945 59.3131C369.289 59.3131 366.921 58.7531 364.841 57.6331C362.793 56.4811 361.177 54.9131 359.993 52.9291C358.841 50.9131 358.265 48.6091 358.265 46.0171C358.265 43.3931 358.809 41.0891 359.897 39.1051C361.017 37.0891 362.553 35.5211 364.505 34.4011C366.457 33.2491 368.697 32.6731 371.225 32.6731C373.721 32.6731 375.865 33.2331 377.657 34.3531C379.449 35.4411 380.809 36.9611 381.737 38.9131C382.697 40.8331 383.177 43.0571 383.177 45.5851C383.177 46.1931 382.969 46.7051 382.553 47.1211C382.137 47.5051 381.609 47.6971 380.969 47.6971H362.729C363.081 49.9051 364.089 51.7131 365.753 53.1211C367.449 54.4971 369.513 55.1851 371.945 55.1851C372.937 55.1851 373.945 55.0091 374.969 54.6571C376.025 54.2731 376.873 53.8411 377.513 53.3611C377.993 53.0091 378.505 52.8331 379.049 52.8331C379.625 52.8011 380.121 52.9611 380.537 53.3131C381.081 53.7931 381.369 54.3211 381.401 54.8971C381.433 55.4731 381.177 55.9691 380.633 56.3851C379.545 57.2491 378.185 57.9531 376.553 58.4971C374.953 59.0411 373.417 59.3131 371.945 59.3131ZM371.225 36.8011C368.857 36.8011 366.953 37.4571 365.513 38.7691C364.073 40.0811 363.161 41.7771 362.777 43.8571H378.761C378.473 41.8091 377.689 40.1291 376.409 38.8171C375.129 37.4731 373.401 36.8011 371.225 36.8011ZM391.87 59.1691C391.166 59.1691 390.574 58.9451 390.094 58.4971C389.646 58.0171 389.422 57.4251 389.422 56.7211V35.3611C389.422 34.6251 389.646 34.0331 390.094 33.5851C390.574 33.1371 391.166 32.9131 391.87 32.9131C392.606 32.9131 393.198 33.1371 393.646 33.5851C394.094 34.0331 394.318 34.5931 394.318 35.2651C395.15 34.4331 396.142 33.7931 397.294 33.3451C398.446 32.8651 399.694 32.6251 401.038 32.6251C404.398 32.6251 406.926 33.8891 408.622 36.4171C409.55 35.2331 410.734 34.3051 412.174 33.6331C413.614 32.9611 415.23 32.6251 417.022 32.6251C419.774 32.6251 422.014 33.5211 423.742 35.3131C425.47 37.1051 426.334 39.6651 426.334 42.9931V56.7211C426.334 57.4251 426.11 58.0171 425.662 58.4971C425.214 58.9451 424.622 59.1691 423.886 59.1691C423.182 59.1691 422.59 58.9451 422.11 58.4971C421.662 58.0171 421.438 57.4251 421.438 56.7211V42.9931C421.438 40.9771 420.942 39.4891 419.95 38.5291C418.958 37.5371 417.662 37.0411 416.062 37.0411C414.398 37.0411 413.022 37.6171 411.934 38.7691C410.878 39.9211 410.35 41.3931 410.35 43.1851V56.7211C410.35 57.4251 410.126 58.0171 409.678 58.4971C409.23 58.9451 408.638 59.1691 407.902 59.1691C407.198 59.1691 406.606 58.9451 406.126 58.4971C405.678 58.0171 405.454 57.4251 405.454 56.7211V42.9931C405.454 40.9771 404.958 39.4891 403.966 38.5291C402.974 37.5371 401.678 37.0411 400.078 37.0411C398.414 37.0411 397.038 37.6171 395.95 38.7691C394.862 39.9211 394.318 41.3931 394.318 43.1851V56.7211C394.318 57.4251 394.094 58.0171 393.646 58.4971C393.198 58.9451 392.606 59.1691 391.87 59.1691ZM446.804 59.3131C444.148 59.3131 441.78 58.7531 439.7 57.6331C437.652 56.4811 436.036 54.9131 434.852 52.9291C433.7 50.9131 433.124 48.6091 433.124 46.0171C433.124 43.3931 433.668 41.0891 434.756 39.1051C435.876 37.0891 437.412 35.5211 439.364 34.4011C441.316 33.2491 443.556 32.6731 446.084 32.6731C448.58 32.6731 450.724 33.2331 452.516 34.3531C454.308 35.4411 455.668 36.9611 456.596 38.9131C457.556 40.8331 458.036 43.0571 458.036 45.5851C458.036 46.1931 457.828 46.7051 457.412 47.1211C456.996 47.5051 456.468 47.6971 455.828 47.6971H437.588C437.94 49.9051 438.948 51.7131 440.612 53.1211C442.308 54.4971 444.372 55.1851 446.804 55.1851C447.796 55.1851 448.804 55.0091 449.828 54.6571C450.884 54.2731 451.732 53.8411 452.372 53.3611C452.852 53.0091 453.364 52.8331 453.908 52.8331C454.484 52.8011 454.98 52.9611 455.396 53.3131C455.94 53.7931 456.228 54.3211 456.26 54.8971C456.292 55.4731 456.036 55.9691 455.492 56.3851C454.404 57.2491 453.044 57.9531 451.412 58.4971C449.812 59.0411 448.276 59.3131 446.804 59.3131ZM446.084 36.8011C443.716 36.8011 441.812 37.4571 440.372 38.7691C438.932 40.0811 438.02 41.7771 437.636 43.8571H453.62C453.332 41.8091 452.548 40.1291 451.268 38.8171C449.988 37.4731 448.26 36.8011 446.084 36.8011Z" fill="white"/>
<defs>
<linearGradient id="paint0_linear" x1="8.05268" y1="0.0228245" x2="79.966" y2="90.9241" gradientUnits="userSpaceOnUse">
<stop stop-color="#FF7A00"/>
<stop offset="1" stop-color="#FF5C00"/>
</linearGradient>
</defs>
</svg>
