<svg width="1633" height="634" viewBox="0 0 1633 634" fill="none" xmlns="http://www.w3.org/2000/svg">
<path fill-rule="evenodd" clip-rule="evenodd" d="M1484.3 40.3871C1413.47 5.29187 1333.24 57.4163 1262.05 91.7704C1207.48 118.109 1171.71 163.184 1133.09 209.878C1081.15 272.66 998.301 324.094 1002.58 405.46C1007.24 494.15 1070.15 583.463 1154.23 612.085C1232.76 638.822 1301.58 559.42 1380.6 534.152C1452.26 511.237 1545.44 534.451 1588.96 473.075C1633.64 410.055 1600.05 325.337 1581.88 250.249C1563.03 172.298 1556.16 75.9957 1484.3 40.3871Z" fill="#FFC38B"/>
<path d="M1257.57 70.2209C1333.47 33.5882 1419.02 -21.9924 1494.53 15.4246C1571.15 53.3888 1578.47 156.07 1598.57 239.184C1617.93 319.245 1653.74 409.573 1606.1 476.77C1587.8 502.576 1561.27 514.358 1531.16 520.661M980.91 404.7C985.876 499.265 1052.95 594.491 1142.59 625.006C1201.11 644.928 1254.57 609.573 1310.22 577.277" stroke="white" stroke-width="5"/>
<path d="M49.7809 372.806C54.5809 372.806 59.1809 371.846 63.5809 369.926C67.9809 367.926 71.7009 365.126 74.7409 361.526L83.0209 369.926C78.9409 374.406 73.9009 377.966 67.9009 380.606C61.9809 383.166 55.8209 384.446 49.4209 384.446C43.2609 384.446 37.4609 383.326 32.0209 381.086C26.6609 378.846 22.0209 375.806 18.1009 371.966C14.1809 368.046 11.0609 363.446 8.74094 358.166C6.50094 352.806 5.38094 347.126 5.38094 341.126C5.38094 335.046 6.50094 329.366 8.74094 324.086C11.0609 318.806 14.1809 314.246 18.1009 310.406C22.0209 306.486 26.6609 303.406 32.0209 301.166C37.4609 298.926 43.2609 297.806 49.4209 297.806C55.9809 297.806 62.2609 299.126 68.2609 301.766C74.3409 304.326 79.3409 307.846 83.2609 312.326L74.8609 320.966C71.6609 317.286 67.8209 314.446 63.3409 312.446C58.8609 310.446 54.2209 309.446 49.4209 309.446C45.0209 309.446 40.9009 310.246 37.0609 311.846C33.2209 313.446 29.9009 315.686 27.1009 318.566C24.3809 321.366 22.2209 324.726 20.6209 328.646C19.0209 332.486 18.2209 336.646 18.2209 341.126C18.2209 345.606 19.0209 349.806 20.6209 353.726C22.2209 357.566 24.4209 360.886 27.2209 363.686C30.0209 366.486 33.3409 368.726 37.1809 370.406C41.1009 372.006 45.3009 372.806 49.7809 372.806ZM219.588 383.126V374.366L269.988 310.166H219.948V299.126H286.428V307.886L235.908 372.086H287.268V383.126H219.588ZM428.473 383.126V299.126H490.393V310.166H441.073V335.366H473.473V346.166H441.073V372.086H490.873V383.126H428.473ZM669.468 372.806C674.268 372.806 678.868 371.846 683.268 369.926C687.668 367.926 691.388 365.126 694.428 361.526L702.708 369.926C698.628 374.406 693.588 377.966 687.588 380.606C681.668 383.166 675.508 384.446 669.108 384.446C662.948 384.446 657.148 383.326 651.708 381.086C646.348 378.846 641.708 375.806 637.788 371.966C633.868 368.046 630.748 363.446 628.428 358.166C626.188 352.806 625.068 347.126 625.068 341.126C625.068 335.046 626.188 329.366 628.428 324.086C630.748 318.806 633.868 314.246 637.788 310.406C641.708 306.486 646.348 303.406 651.708 301.166C657.148 298.926 662.948 297.806 669.108 297.806C675.668 297.806 681.948 299.126 687.948 301.766C694.028 304.326 699.028 307.846 702.948 312.326L694.548 320.966C691.348 317.286 687.508 314.446 683.028 312.446C678.548 310.446 673.908 309.446 669.108 309.446C664.708 309.446 660.588 310.246 656.748 311.846C652.908 313.446 649.588 315.686 646.788 318.566C644.068 321.366 641.908 324.726 640.308 328.646C638.708 332.486 637.908 336.646 637.908 341.126C637.908 345.606 638.708 349.806 640.308 353.726C641.908 357.566 644.108 360.886 646.908 363.686C649.708 366.486 653.028 368.726 656.868 370.406C660.788 372.006 664.988 372.806 669.468 372.806ZM845.036 383.126V299.126H857.636V335.126H902.276V299.126H914.876V383.126H902.276V346.526H857.636V383.126H845.036Z" fill="white"/>
<path d="M1102.79 372.806C1107.59 372.806 1112.19 371.846 1116.59 369.926C1120.99 367.926 1124.71 365.126 1127.75 361.526L1136.03 369.926C1131.95 374.406 1126.91 377.966 1120.91 380.606C1114.99 383.166 1108.83 384.446 1102.43 384.446C1096.27 384.446 1090.47 383.326 1085.03 381.086C1079.67 378.846 1075.03 375.806 1071.11 371.966C1067.19 368.046 1064.07 363.446 1061.75 358.166C1059.51 352.806 1058.39 347.126 1058.39 341.126C1058.39 335.046 1059.51 329.366 1061.75 324.086C1064.07 318.806 1067.19 314.246 1071.11 310.406C1075.03 306.486 1079.67 303.406 1085.03 301.166C1090.47 298.926 1096.27 297.806 1102.43 297.806C1108.99 297.806 1115.27 299.126 1121.27 301.766C1127.35 304.326 1132.35 307.846 1136.27 312.326L1127.87 320.966C1124.67 317.286 1120.83 314.446 1116.35 312.446C1111.87 310.446 1107.23 309.446 1102.43 309.446C1098.03 309.446 1093.91 310.246 1090.07 311.846C1086.23 313.446 1082.91 315.686 1080.11 318.566C1077.39 321.366 1075.23 324.726 1073.63 328.646C1072.03 332.486 1071.23 336.646 1071.23 341.126C1071.23 345.606 1072.03 349.806 1073.63 353.726C1075.23 357.566 1077.43 360.886 1080.23 363.686C1083.03 366.486 1086.35 368.726 1090.19 370.406C1094.11 372.006 1098.31 372.806 1102.79 372.806ZM1359.89 341.126C1359.89 347.126 1358.73 352.806 1356.41 358.166C1354.17 363.446 1351.09 368.046 1347.17 371.966C1343.25 375.806 1338.61 378.846 1333.25 381.086C1327.89 383.326 1322.17 384.446 1316.09 384.446C1310.01 384.446 1304.29 383.326 1298.93 381.086C1293.57 378.846 1288.93 375.806 1285.01 371.966C1281.17 368.046 1278.09 363.446 1275.77 358.166C1273.53 352.806 1272.41 347.126 1272.41 341.126C1272.41 335.126 1273.53 329.486 1275.77 324.206C1278.09 318.846 1281.17 314.246 1285.01 310.406C1288.93 306.486 1293.57 303.406 1298.93 301.166C1304.29 298.926 1310.01 297.806 1316.09 297.806C1322.17 297.806 1327.89 298.926 1333.25 301.166C1338.61 303.406 1343.25 306.486 1347.17 310.406C1351.09 314.246 1354.17 318.846 1356.41 324.206C1358.73 329.486 1359.89 335.126 1359.89 341.126ZM1347.05 341.126C1347.05 336.646 1346.25 332.486 1344.65 328.646C1343.05 324.726 1340.85 321.366 1338.05 318.566C1335.33 315.686 1332.05 313.446 1328.21 311.846C1324.45 310.246 1320.41 309.446 1316.09 309.446C1311.77 309.446 1307.73 310.246 1303.97 311.846C1300.21 313.446 1296.93 315.686 1294.13 318.566C1291.41 321.366 1289.25 324.726 1287.65 328.646C1286.05 332.486 1285.25 336.646 1285.25 341.126C1285.25 345.606 1286.05 349.806 1287.65 353.726C1289.25 357.566 1291.41 360.886 1294.13 363.686C1296.93 366.486 1300.21 368.726 1303.97 370.406C1307.73 372.006 1311.77 372.806 1316.09 372.806C1320.41 372.806 1324.45 372.006 1328.21 370.406C1332.05 368.726 1335.33 366.486 1338.05 363.686C1340.85 360.886 1343.05 357.566 1344.65 353.726C1346.25 349.806 1347.05 345.606 1347.05 341.126ZM1503.28 299.126H1515.64L1562.44 361.406V299.126H1574.32V383.126H1563.28L1515.16 318.806V383.126H1503.28V299.126Z" fill="black"/>
</svg>
